# xmcd
#
# Track frame offsets:
#	150
#	18439
#	39599
#	56697
#	76515
#	94541
#	114608
#	132204
#	146427
#	167637
#	184343
#	203598
#	229634
#
# Disc length: 3394 seconds
#
# Revision: 4
# Processed by: cddbd v1.5.2PL0 Copyright (c) Steve Scherf et al.
# Submitted via: audiograbber 1.83.01
#
DISCID=9f0d400d
DTITLE=PLIATSIKAS FILIPPOS - TI DEN EMATHE O THEOS
DYEAR=2005
DGENRE=Rock
TTITLE0=TI DEN EMATHE OTHEOS
TTITLE1=KARAVI MIKRO
TTITLE2=(SAY SOMETHING)
TTITLE3=ENA AMAXI ME FTERA
TTITLE4=LATHOS TELEUTAIO
TTITLE5=TI TREXEI EDW
TTITLE6=THALASSA
TTITLE7=MAKARI NA HTAN ALLIWS
TTITLE8=GI'ALLO TAXIDI
TTITLE9=MIA PETALOUDA STO PSYGEIO
TTITLE10=XREIAZETAI ENA THAUMA
TTITLE11=KAI H ZWH SYNEXIZETAI
TTITLE12=Data track
EXTD=
EXTT0=
EXTT1=
EXTT2=
EXTT3=
EXTT4=
EXTT5=
EXTT6=
EXTT7=
EXTT8=
EXTT9=
EXTT10=
EXTT11=
EXTT12=
PLAYORDER=
